<svg width="1600" height="500" viewBox="0 0 1600 500" fill="none" xmlns="http://www.w3.org/2000/svg">
  <defs>
    <linearGradient id="sky" x1="0" y1="0" x2="1600" y2="500" gradientUnits="userSpaceOnUse">
      <stop offset="0" stop-color="#020814"/>
      <stop offset="0.4" stop-color="#0B1730"/>
      <stop offset="1" stop-color="#1B2D44"/>
    </linearGradient>
    <linearGradient id="windowGlow" x1="0" y1="0" x2="1" y2="1">
      <stop offset="0" stop-color="#F8D194" stop-opacity="0.9"/>
      <stop offset="1" stop-color="#F6C98A" stop-opacity="0.5"/>
    </linearGradient>
    <linearGradient id="screenGlow" x1="0" y1="0" x2="1" y2="1">
      <stop offset="0" stop-color="#1DF2C9" stop-opacity="0.25"/>
      <stop offset="1" stop-color="#7F5AF0" stop-opacity="0.18"/>
    </linearGradient>
    <filter id="softBlur" x="-20%" y="-20%" width="140%" height="140%">
      <feGaussianBlur stdDeviation="25"/>
    </filter>
  </defs>

  <rect width="1600" height="500" fill="url(#sky)"/>

  <circle cx="1400" cy="70" r="90" fill="#5AA8FF" fill-opacity="0.08"/>
  <circle cx="1220" cy="120" r="150" fill="#A7C7FF" fill-opacity="0.05"/>
  <circle cx="150" cy="70" r="70" fill="#7DD3FC" fill-opacity="0.05"/>

  <g opacity="0.9">
    <circle cx="78" cy="95" r="2.4" fill="#E6F1FF"/>
    <circle cx="120" cy="72" r="2.1" fill="#E6F1FF"/>
    <circle cx="170" cy="116" r="2.2" fill="#E6F1FF"/>
    <circle cx="228" cy="86" r="2.4" fill="#E6F1FF"/>
    <circle cx="295" cy="106" r="2.4" fill="#E6F1FF"/>
    <circle cx="380" cy="80" r="2.2" fill="#E6F1FF"/>
    <circle cx="460" cy="120" r="2.5" fill="#E6F1FF"/>
    <circle cx="540" cy="95" r="2.4" fill="#E6F1FF"/>
    <circle cx="610" cy="75" r="2.3" fill="#E6F1FF"/>
    <circle cx="700" cy="110" r="2.5" fill="#E6F1FF"/>
    <circle cx="810" cy="70" r="2.2" fill="#E6F1FF"/>
    <circle cx="920" cy="95" r="2.5" fill="#E6F1FF"/>
    <circle cx="1030" cy="77" r="2.2" fill="#E6F1FF"/>
    <circle cx="1160" cy="100" r="2.4" fill="#E6F1FF"/>
    <circle cx="1290" cy="82" r="2.3" fill="#E6F1FF"/>
    <circle cx="1398" cy="120" r="2.5" fill="#E6F1FF"/>
    <circle cx="1495" cy="70" r="2.2" fill="#E6F1FF"/>
  </g>

  <g opacity="0.7">
    <path d="M0 330C130 290 190 278 280 290C398 306 490 360 620 344C736 330 820 280 910 285C1040 290 1130 350 1275 338C1384 330 1490 290 1600 300V500H0V330Z" fill="#0B1A2E"/>
    <path d="M0 360C90 334 170 328 260 338C392 353 474 398 604 388C768 376 846 300 1004 304C1138 308 1260 366 1600 350V500H0V360Z" fill="#122542"/>
    <path d="M0 390C112 374 180 362 260 370C384 381 462 420 590 421C741 423 818 350 968 351C1115 352 1223 410 1600 392V500H0V390Z" fill="#172F4D"/>
  </g>

  <g opacity="0.9">
    <path d="M53 480L120 420L182 480H53Z" fill="#081521"/>
    <path d="M240 480L323 400L410 480H240Z" fill="#081C2B"/>
    <path d="M430 480L505 410L585 480H430Z" fill="#081C2B"/>
    <path d="M680 480L760 390L860 480H680Z" fill="#0B1C2E"/>
    <path d="M900 480L993 395L1098 480H900Z" fill="#0B1C2E"/>
    <path d="M1120 480L1190 405L1285 480H1120Z" fill="#0C2237"/>
    <path d="M1300 480L1378 410L1478 480H1300Z" fill="#0A1F32"/>
  </g>

  <g opacity="0.8">
    <path d="M0 290C180 260 280 260 410 280C590 306 620 290 730 265C833 240 950 235 1065 254C1235 280 1370 292 1600 260V500H0V290Z" fill="#0A1426"/>
  </g>

  <g filter="url(#softBlur)" opacity="0.7">
    <ellipse cx="188" cy="470" rx="10" ry="6" fill="#F7DAB0"/>
    <ellipse cx="260" cy="465" rx="12" ry="8" fill="#F7DAB0"/>
    <ellipse cx="338" cy="472" rx="8" ry="6" fill="#F7DAB0"/>
    <ellipse cx="410" cy="468" rx="12" ry="8" fill="#F7DAB0"/>
    <ellipse cx="505" cy="470" rx="10" ry="6" fill="#F7DAB0"/>
    <ellipse cx="620" cy="466" rx="12" ry="8" fill="#F7DAB0"/>
    <ellipse cx="740" cy="468" rx="10" ry="6" fill="#F7DAB0"/>
    <ellipse cx="845" cy="470" rx="12" ry="8" fill="#F7DAB0"/>
    <ellipse cx="935" cy="466" rx="10" ry="6" fill="#F7DAB0"/>
    <ellipse cx="1040" cy="470" rx="12" ry="8" fill="#F7DAB0"/>
    <ellipse cx="1125" cy="465" rx="10" ry="6" fill="#F7DAB0"/>
    <ellipse cx="1218" cy="472" rx="12" ry="8" fill="#F7DAB0"/>
    <ellipse cx="1325" cy="470" rx="10" ry="7" fill="#F7DAB0"/>
    <ellipse cx="1425" cy="468" rx="12" ry="8" fill="#F7DAB0"/>
  </g>

  <g>
    <rect x="365" y="40" width="890" height="420" rx="20" fill="#0D1116" fill-opacity="0.28"/>
    <rect x="396" y="66" width="828" height="362" rx="16" fill="#111827" stroke="#4B5563" stroke-opacity="0.8"/>
    <rect x="420" y="90" width="780" height="315" rx="12" fill="#0B1120" stroke="#1F2937"/>

    <rect x="460" y="112" width="620" height="12" rx="6" fill="#1F2937"/>
    <rect x="460" y="144" width="470" height="9" rx="4.5" fill="#1F2937"/>
    <rect x="460" y="170" width="360" height="9" rx="4.5" fill="#1F2937"/>

    <g opacity="0.92">
      <rect x="460" y="220" width="190" height="12" rx="6" fill="#22D3EE"/>
      <rect x="665" y="220" width="130" height="12" rx="6" fill="#7DD3FC"/>
      <rect x="810" y="220" width="220" height="12" rx="6" fill="#34D399"/>
      <rect x="460" y="246" width="170" height="12" rx="6" fill="#8B5CF6"/>
      <rect x="645" y="246" width="260" height="12" rx="6" fill="#F59E0B"/>
      <rect x="920" y="246" width="120" height="12" rx="6" fill="#F472B6"/>
      <rect x="460" y="273" width="220" height="12" rx="6" fill="#60A5FA"/>
      <rect x="695" y="273" width="175" height="12" rx="6" fill="#10B981"/>
      <rect x="885" y="273" width="150" height="12" rx="6" fill="#FBBF24"/>
      <rect x="460" y="300" width="150" height="12" rx="6" fill="#22C55E"/>
      <rect x="625" y="300" width="320" height="12" rx="6" fill="#38BDF8"/>
      <rect x="960" y="300" width="90" height="12" rx="6" fill="#A78BFA"/>
      <rect x="460" y="328" width="210" height="12" rx="6" fill="#2DD4BF"/>
      <rect x="688" y="328" width="145" height="12" rx="6" fill="#F59E0B"/>
      <rect x="850" y="328" width="160" height="12" rx="6" fill="#A78BFA"/>
    </g>

    <rect x="460" y="360" width="250" height="18" rx="9" fill="url(#screenGlow)"/>
    <rect x="720" y="360" width="220" height="18" rx="9" fill="#111827"/>
  </g>

  <g>
    <rect x="405" y="400" width="150" height="20" rx="10" fill="#0D1116" fill-opacity="0.8"/>
    <rect x="1000" y="158" width="180" height="20" rx="10" fill="#0D1116" fill-opacity="0.8"/>
  </g>
</svg>
